<?xml version="1.0" encoding="utf-8"?>
<!-- Generator: Adobe Illustrator 27.4.0, SVG Export Plug-In . SVG Version: 6.00 Build 0)  -->
<svg version="1.1" id="Ebene_1" xmlns="http://www.w3.org/2000/svg" xmlns:xlink="http://www.w3.org/1999/xlink" x="0px" y="0px"
	 viewBox="0 0 149.7 149.6" style="enable-background:new 0 0 149.7 149.6;" xml:space="preserve">
<path d="M63.4,74.1C61.5,41.4,84.4,13,115.8,7c-18.7-5.8-39.6-3.5-57.2,8.1C42.2,25.9,32.1,42.6,29.2,60.6V5.4H0v130.2h29.2V93.1
	l0.1-10c1.6,8.8,4.9,17.5,10.2,25.5c17.7,26.8,51.2,36.8,80,26C89.2,130.6,65.1,105.7,63.4,74.1z"/>
<path d="M81.9,38.3c7.4-6.3,17.5-9.3,29.6-9.2c3.4,0,7.5,0,9.9,0.6v82.5c-2.4,0.6-6.7,1.1-12.9,1.1c-9.1,0-16.9-1.9-23.2-5.6
	c10.8,15.1,28,25.2,47.7,26.6c6.8,0.1,11.3,0.1,16.8,0V7c-5.7,0.1-12.7,0-22.6,0C107.8,10.1,91.3,21.9,81.9,38.3z"/>
</svg>
