<?xml version="1.0" encoding="utf-8"?>
<!-- Generator: Adobe Illustrator 26.0.0, SVG Export Plug-In . SVG Version: 6.00 Build 0)  -->
<svg version="1.1" id="Ebene_1" xmlns="http://www.w3.org/2000/svg" xmlns:xlink="http://www.w3.org/1999/xlink" x="0px" y="0px"
	 viewBox="0 0 92.4 28" style="enable-background:new 0 0 92.4 28;" xml:space="preserve">
<style type="text/css">
	.st0{fill:#0345BF;}
	.st1{enable-background:new    ;}
	.st2{fill:#525252;}
	.st3{font-family:'ITCAvantGardeStd-Md';}
	.st4{font-size:13.8542px;}
	.st5{font-family:'ITCAvantGardeStd-Bold';}
</style>
<path id="Fill-1_6_" class="st0" d="M5.3-18.8c0-0.9,0.3-4.1,5.5-6.7c5.1-2.5,5.7-4.6,5.7-4.6c-0.5,2.9-1.4,3.7-6.3,6.3
	C5.4-21.2,5.3-18.8,5.3-18.8z"/>
<path id="Fill-3_6_" class="st0" d="M5.3-13.4c0,0,0.1-2.5,4.8-5c4.9-2.6,5.8-3.5,6.3-6.3c0,0-0.5,2-5.7,4.6S5.2-14.3,5.3-13.4"/>
<g id="Group-7_6_">
	<path id="Fill-5_6_" class="st0" d="M11.1-33.9c-6.9,0-12.5,5.6-12.5,12.4S4.2-9.1,11-9.1s12.4-5.6,12.4-12.4
		C23.6-28.3,18-33.9,11.1-33.9 M11.1-7.6c-7.6,0-13.8-6.2-13.8-13.9s6.2-13.8,13.8-13.8s13.8,6.2,13.8,13.8S18.8-7.6,11.1-7.6"/>
</g>
<g class="st1">
	<path d="M29.3-29.7h3.2v5h4.9v-5h3.2v12.3h-3.2v-4.7h-4.9v4.7h-3.2C29.3-17.4,29.3-29.7,29.3-29.7z M44-29.7h9.7v2.6h-6.5v2.3H53
		v2.5h-5.8v2.3h6.6v2.6H44C44-17.4,44-29.7,44-29.7z M56.8-29.7H60v9.5h5.2v2.7h-8.4C56.8-17.5,56.8-29.7,56.8-29.7z M67.6-29.7h3.2
		v12.3h-3.2C67.6-17.4,67.6-29.7,67.6-29.7z M73.3-29.7h3.8l2.3,3.5l2.3-3.5h3.8l-4,5.9l4.4,6.4h-3.8l-2.6-3.8l-2.6,3.8h-3.8
		l4.4-6.2L73.3-29.7L73.3-29.7z"/>
</g>
<g class="st1">
	<path class="st2" d="M30.2-10.5c0.3,0.3,0.7,0.5,1.3,0.5c0.5,0,1-0.2,1.3-0.5s0.5-0.8,0.5-1.3V-15h0.5v3.2c0,0.7-0.2,1.3-0.6,1.7
		c-0.4,0.4-1,0.6-1.7,0.6c-0.7,0-1.3-0.2-1.7-0.6s-0.6-1-0.6-1.7V-15h0.5v3.2C29.8-11.3,29.9-10.9,30.2-10.5z M38.4-15.1h0.5v5h2.4
		v0.5h-2.9V-15.1z M44.6-15.1h4.1v0.5h-1.8v5h-0.5v-5h-1.8V-15.1z M52.7-15.1h0.5v5.5h-0.5V-15.1z M57.9-15.1h0.7l2.1,4.1l2.1-4.1
		h0.7v5.5H63v-4.7l-2.1,4.1h-0.3l-2.1-4.1v4.7H58L57.9-15.1L57.9-15.1z M72.3-9.6l-0.6-1.5h-3l-0.6,1.5h-0.6l2.5-5.5h0.6l2.5,5.5
		H72.3z M68.9-11.6h2.6l-1.3-3C70.2-14.6,68.9-11.6,68.9-11.6z M75.5-15.1h4.1v0.5h-1.8v5h-0.5v-5h-1.8
		C75.5-14.6,75.5-15.1,75.5-15.1z M83.6-15.1h3.7v0.5h-3.1v2H87v0.5h-2.8v2.1h3.2v0.5h-3.8C83.6-9.5,83.6-15.1,83.6-15.1z"/>
</g>
<text transform="matrix(1 0 0 1 31.1284 11.6914)"><tspan x="0" y="0" class="st3 st4">Daria </tspan><tspan x="0" y="13.9" class="st5 st4">Klokova</tspan></text>
<path d="M11.8,14.2c-0.4-6.1,3.9-11.5,9.8-12.6C18.1,0.5,14.2,1,10.9,3.1c-3.1,2-5,5.2-5.5,8.5V1.3h-5.5v24.4h5.5v-8l0-1.9
	c0.3,1.7,0.9,3.3,1.9,4.8c3.3,5,9.6,6.9,15,4.9C16.7,24.8,12.1,20.1,11.8,14.2z"/>
<path d="M15.3,7.5c1.4-1.2,3.3-1.7,5.6-1.7c0.6,0,1.4,0,1.9,0.1v15.5c-0.5,0.1-1.3,0.2-2.4,0.2c-1.7,0-3.2-0.4-4.4-1.1
	c2,2.8,5.3,4.7,9,5c1.3,0,2.1,0,3.2,0V1.6c-1.1,0-2.4,0-4.2,0C20.2,2.2,17.1,4.4,15.3,7.5z"/>
</svg>
