<?xml version="1.0" encoding="UTF-8"?>
<svg id="svg9" xmlns="http://www.w3.org/2000/svg" viewBox="0 0 666.67 666.67">
  <defs>
    <style>
      .cls-1 {
        fill: #999;
      }
    </style>
  </defs>
  <path class="cls-1" d="m333.33,1.22C149.24,1.22,0,150.46,0,334.55,0,490.88,107.62,622.05,252.81,658.07v-221.66h-68.74v-101.86h0s68.74,0,68.74,0v-43.89c0-113.46,51.35-166.04,162.73-166.04,11.12,0,26.5,1.15,40.74,2.84,12.79,1.52,24.67,3.48,31.72,5.44v92.34c-4.61-.48-11.21-.83-19.29-1.03-5.72-.14-12.18-.21-19.22-.21-18.19,0-32.65,2.31-43.87,7.36-9.85,4.43-17.21,10.96-22.34,19.94-6.59,11.52-9.56,27.05-9.56,47.24v36.02h108.88,0s0,0,0,0l-10.6,57.73-8.1,44.13h0s-90.17,0-90.17,0v229.03c165.05-19.94,292.95-160.47,292.95-330.89C666.67,150.46,517.43,1.22,333.33,1.22Z"/>
</svg>