<?xml version="1.0" encoding="UTF-8"?>
<svg id="svg9" xmlns="http://www.w3.org/2000/svg" viewBox="0 0 666.67 666.67">
  <defs>
    <style>
      .cls-1 {
        fill: #999;
      }
    </style>
  </defs>
  <path class="cls-1" d="m334.28,257.33h0c-42.52,0-76.98,34.44-76.98,76.93s34.47,76.93,76.98,76.93,76.98-34.44,76.98-76.93-34.47-76.93-76.98-76.93Z"/>
  <path class="cls-1" d="m514.31,198.14c-4.2-10.77-9.2-18.46-17.28-26.54-8.08-8.08-15.76-13.08-26.54-17.26-8.14-3.16-20.36-6.92-42.88-7.95-24.35-1.11-31.66-1.33-93.32-1.33-7.71,0-14.57,0-20.72,0v-.06c-43.04.05-51.3.34-72.61,1.3-22.52,1.03-34.74,4.78-42.89,7.96-10.78,4.19-18.48,9.19-26.56,17.27-8.08,8.08-13.1,15.77-17.28,26.54-3.16,8.14-6.92,20.35-7.95,42.85-1.11,24.33-1.33,31.6-1.33,93.23s.22,68.94,1.33,93.27c1.02,22.5,4.79,34.71,7.95,42.84,4.2,10.77,9.2,18.45,17.28,26.53,8.08,8.08,15.78,13.08,26.56,17.26,8.15,3.16,20.37,6.92,42.89,7.96,24.35,1.11,31.66,1.35,93.32,1.35s68.98-.24,93.32-1.35c22.52-1.03,34.75-4.78,42.88-7.95,10.78-4.18,18.46-9.18,26.54-17.26,8.08-8.07,13.1-15.74,17.28-26.51,3.16-8.13,6.92-20.34,7.95-42.84,1.11-24.33,1.35-31.64,1.35-93.23s-.24-68.9-1.35-93.23c-1.02-22.5-4.79-34.71-7.95-42.84Zm-180.03,254.61c-65.5,0-118.6-53.04-118.6-118.49s53.1-118.52,118.6-118.52h0,0,0c65.5,0,118.59,53.07,118.59,118.52s-53.09,118.49-118.59,118.49Zm123.28-213.99c-15.3,0-27.71-12.4-27.71-27.69s12.41-27.68,27.71-27.68h0c15.3,0,27.71,12.4,27.71,27.68s-12.41,27.69-27.71,27.69Z"/>
  <path class="cls-1" d="m333.33.93C149.75.93.93,149.75.93,333.33s148.82,332.41,332.41,332.41,332.41-148.82,332.41-332.41S516.92.93,333.33.93Zm230.48,428.47c-1.15,24.56-5.05,41.33-10.73,56.01-5.92,15.17-13.81,28.05-26.66,40.88-12.83,12.84-25.7,20.74-40.88,26.64-14.69,5.71-31.5,9.6-56.08,10.72-24.64,1.12-32.48,1.39-95.21,1.39s-70.59-.27-95.22-1.39c-24.58-1.13-41.37-5.01-56.06-10.72-15.18-5.89-28.07-13.8-40.9-26.64-12.84-12.83-20.73-25.7-26.64-40.88-5.71-14.67-9.6-31.44-10.73-56.01-1.12-24.62-1.4-32.46-1.4-95.14s.29-70.55,1.39-95.16c1.11-24.56,5-41.33,10.73-56.01,5.92-15.17,13.81-28.05,26.66-40.88,12.84-12.83,25.72-20.72,40.91-26.61,14.68-5.71,31.47-9.6,56.05-10.72,24.63-1.12,32.5-1.39,95.19-1.39h-.04.07-.04c62.71,0,70.55.27,95.18,1.39,24.59,1.12,41.38,5.01,56.1,10.72,15.2,5.89,28.05,13.77,40.9,26.61,12.85,12.83,20.74,25.7,26.66,40.88,5.68,14.67,9.57,31.44,10.73,56.01,1.11,24.62,1.4,32.48,1.4,95.16s-.29,70.52-1.4,95.14Z"/>
</svg>