<?xml version="1.0" encoding="utf-8"?>
<!-- Generator: Adobe Illustrator 26.0.0, SVG Export Plug-In . SVG Version: 6.00 Build 0)  -->
<svg version="1.1" id="Ebene_1" xmlns="http://www.w3.org/2000/svg" xmlns:xlink="http://www.w3.org/1999/xlink" x="0px" y="0px"
	 viewBox="0 0 92.4 28" style="enable-background:new 0 0 92.4 28;" xml:space="preserve">
<style type="text/css">
	.st0{font-family:'ITCAvantGardeStd-Md';}
	.st1{font-size:14.1614px;}
	.st2{font-family:'ITCAvantGardeStd-Bold';}
</style>
<text transform="matrix(1 0 0 1 31.9213 11.99)" class="st0 st1">Daria </text>
<text transform="matrix(1 0 0 1 31.9213 26.1985)" class="st2 st1">Klokova</text>
<path d="M12.2,14.6c-0.4-6.2,4-11.8,10-12.9c-3.6-1.1-7.6-0.6-10.9,1.5c-3.2,2-5.1,5.3-5.6,8.7V1.4H0v24.9h5.6v-8.2v-1.9
	c0.3,1.7,0.9,3.4,1.9,4.9c3.4,5.1,9.8,7.1,15.3,5C17.2,25.4,12.5,20.6,12.2,14.6z"/>
<path d="M15.7,7.7C17.2,6.5,19.1,6,21.5,6c0.6,0,1.4,0,1.9,0.1v15.8c-0.5,0.1-1.3,0.2-2.5,0.2c-1.7,0-3.3-0.4-4.5-1.1
	c2,2.9,5.4,4.8,9.2,5.1c1.3,0,2.1,0,3.3,0V1.7c-1.1,0-2.5,0-4.3,0C20.8,2.3,17.6,4.5,15.7,7.7z"/>
</svg>
